<?xml version="1.0" encoding="UTF-8" standalone="no"?>
<!DOCTYPE svg PUBLIC "-//W3C//DTD SVG 1.1//EN"
 "http://www.w3.org/Graphics/SVG/1.1/DTD/svg11.dtd">
<!-- Generated by graphviz version 2.38.0 (20140413.2041)
 -->
<!-- Title: Dawg Pages: 1 -->
<svg width="824pt" height="980pt"
 viewBox="0.00 0.00 824.00 980.00" xmlns="http://www.w3.org/2000/svg" xmlns:xlink="http://www.w3.org/1999/xlink">
<g id="graph0" class="graph" transform="scale(1 1) rotate(0) translate(4 976)">
<title>Dawg</title>
<polygon fill="white" stroke="none" points="-4,4 -4,-976 820,-976 820,4 -4,4"/>
<!-- 2672 -->
<g id="node1" class="node"><title>2672</title>
<ellipse fill="none" stroke="black" cx="181" cy="-954" rx="27" ry="18"/>
<text text-anchor="middle" x="181" y="-949.8" font-family="Times,serif" font-size="14.00">p</text>
</g>
<!-- 3692 -->
<g id="node2" class="node"><title>3692</title>
<ellipse fill="none" stroke="black" cx="181" cy="-882" rx="27" ry="18"/>
<text text-anchor="middle" x="181" y="-877.8" font-family="Times,serif" font-size="14.00">l</text>
</g>
<!-- 2672&#45;&gt;3692 -->
<g id="edge1" class="edge"><title>2672&#45;&gt;3692</title>
<path fill="none" stroke="black" d="M181,-935.697C181,-927.983 181,-918.712 181,-910.112"/>
<polygon fill="black" stroke="black" points="184.5,-910.104 181,-900.104 177.5,-910.104 184.5,-910.104"/>
</g>
<!-- 4705 -->
<g id="node3" class="node"><title>4705</title>
<ellipse fill="none" stroke="black" cx="181" cy="-810" rx="27" ry="18"/>
<text text-anchor="middle" x="181" y="-805.8" font-family="Times,serif" font-size="14.00">a</text>
</g>
<!-- 3692&#45;&gt;4705 -->
<g id="edge2" class="edge"><title>3692&#45;&gt;4705</title>
<path fill="none" stroke="black" d="M181,-863.697C181,-855.983 181,-846.712 181,-838.112"/>
<polygon fill="black" stroke="black" points="184.5,-838.104 181,-828.104 177.5,-838.104 184.5,-838.104"/>
</g>
<!-- 5742 -->
<g id="node4" class="node"><title>5742</title>
<ellipse fill="none" stroke="black" cx="181" cy="-738" rx="27" ry="18"/>
<text text-anchor="middle" x="181" y="-733.8" font-family="Times,serif" font-size="14.00">n</text>
</g>
<!-- 4705&#45;&gt;5742 -->
<g id="edge3" class="edge"><title>4705&#45;&gt;5742</title>
<path fill="none" stroke="black" d="M181,-791.697C181,-783.983 181,-774.712 181,-766.112"/>
<polygon fill="black" stroke="black" points="184.5,-766.104 181,-756.104 177.5,-766.104 184.5,-766.104"/>
</g>
<!-- 7013 -->
<g id="node5" class="node"><title>7013</title>
<ellipse fill="none" stroke="red" cx="181" cy="-666" rx="27" ry="18"/>
<text text-anchor="middle" x="181" y="-661.8" font-family="Times,serif" font-size="14.00">e</text>
</g>
<!-- 5742&#45;&gt;7013 -->
<g id="edge4" class="edge"><title>5742&#45;&gt;7013</title>
<path fill="none" stroke="black" d="M181,-719.697C181,-711.983 181,-702.712 181,-694.112"/>
<polygon fill="black" stroke="black" points="184.5,-694.104 181,-684.104 177.5,-694.104 184.5,-694.104"/>
</g>
<!-- 356 -->
<g id="node6" class="node"><title>356</title>
<ellipse fill="none" stroke="red" cx="27" cy="-594" rx="27" ry="18"/>
<text text-anchor="middle" x="27" y="-589.8" font-family="Times,serif" font-size="14.00">d</text>
</g>
<!-- 7013&#45;&gt;356 -->
<g id="edge5" class="edge"><title>7013&#45;&gt;356</title>
<path fill="none" stroke="black" d="M159.195,-655.355C135.471,-644.827 96.4521,-627.409 63,-612 61.2108,-611.176 59.3738,-610.324 57.5219,-609.462"/>
<polygon fill="black" stroke="black" points="58.8292,-606.21 48.289,-605.135 55.8586,-612.548 58.8292,-606.21"/>
</g>
<!-- 7276 -->
<g id="node7" class="node"><title>7276</title>
<ellipse fill="none" stroke="black" cx="99" cy="-594" rx="27" ry="18"/>
<text text-anchor="middle" x="99" y="-589.8" font-family="Times,serif" font-size="14.00">l</text>
</g>
<!-- 7013&#45;&gt;7276 -->
<g id="edge6" class="edge"><title>7013&#45;&gt;7276</title>
<path fill="none" stroke="black" d="M164.799,-651.17C152.817,-640.942 136.309,-626.849 122.825,-615.338"/>
<polygon fill="black" stroke="black" points="124.766,-612.394 114.888,-608.563 120.221,-617.717 124.766,-612.394"/>
</g>
<!-- 8302 -->
<g id="node8" class="node"><title>8302</title>
<ellipse fill="none" stroke="black" cx="651" cy="-594" rx="27" ry="18"/>
<text text-anchor="middle" x="651" y="-589.8" font-family="Times,serif" font-size="14.00">n</text>
</g>
<!-- 7013&#45;&gt;8302 -->
<g id="edge7" class="edge"><title>7013&#45;&gt;8302</title>
<path fill="none" stroke="black" d="M207.276,-661.087C286.587,-649.274 523.691,-613.961 614.793,-600.393"/>
<polygon fill="black" stroke="black" points="615.534,-603.821 624.909,-598.886 614.502,-596.897 615.534,-603.821"/>
</g>
<!-- 9586 -->
<g id="node9" class="node"><title>9586</title>
<ellipse fill="none" stroke="red" cx="154" cy="-306" rx="27" ry="18"/>
<text text-anchor="middle" x="154" y="-301.8" font-family="Times,serif" font-size="14.00">r</text>
</g>
<!-- 7013&#45;&gt;9586 -->
<g id="edge8" class="edge"><title>7013&#45;&gt;9586</title>
<path fill="none" stroke="black" d="M175.666,-648.148C167.797,-621.753 154,-568.923 154,-523 154,-523 154,-523 154,-449 154,-408.996 154,-362.653 154,-334.08"/>
<polygon fill="black" stroke="black" points="157.5,-334.049 154,-324.049 150.5,-334.049 157.5,-334.049"/>
</g>
<!-- 10611 -->
<g id="node10" class="node"><title>10611</title>
<ellipse fill="none" stroke="red" cx="209" cy="-594" rx="27" ry="18"/>
<text text-anchor="middle" x="209" y="-589.8" font-family="Times,serif" font-size="14.00">s</text>
</g>
<!-- 7013&#45;&gt;10611 -->
<g id="edge9" class="edge"><title>7013&#45;&gt;10611</title>
<path fill="none" stroke="black" d="M187.636,-648.411C190.913,-640.216 194.944,-630.14 198.618,-620.955"/>
<polygon fill="black" stroke="black" points="201.948,-622.055 202.412,-611.47 195.448,-619.455 201.948,-622.055"/>
</g>
<!-- 12148 -->
<g id="node11" class="node"><title>12148</title>
<ellipse fill="none" stroke="red" cx="461" cy="-594" rx="27" ry="18"/>
<text text-anchor="middle" x="461" y="-589.8" font-family="Times,serif" font-size="14.00">t</text>
</g>
<!-- 7013&#45;&gt;12148 -->
<g id="edge10" class="edge"><title>7013&#45;&gt;12148</title>
<path fill="none" stroke="black" d="M205.848,-658.788C255.87,-646.283 368.819,-618.045 426.173,-603.707"/>
<polygon fill="black" stroke="black" points="427.355,-607.019 436.208,-601.198 425.657,-600.228 427.355,-607.019"/>
</g>
<!-- 12911 -->
<g id="node12" class="node"><title>12911</title>
<ellipse fill="none" stroke="black" cx="99" cy="-522" rx="27" ry="18"/>
<text text-anchor="middle" x="99" y="-517.8" font-family="Times,serif" font-size="14.00">o</text>
</g>
<!-- 7276&#45;&gt;12911 -->
<g id="edge11" class="edge"><title>7276&#45;&gt;12911</title>
<path fill="none" stroke="black" d="M99,-575.697C99,-567.983 99,-558.712 99,-550.112"/>
<polygon fill="black" stroke="black" points="102.5,-550.104 99,-540.104 95.5001,-550.104 102.5,-550.104"/>
</g>
<!-- 13925 -->
<g id="node13" class="node"><title>13925</title>
<ellipse fill="none" stroke="black" cx="784" cy="-450" rx="27" ry="18"/>
<text text-anchor="middle" x="784" y="-445.8" font-family="Times,serif" font-size="14.00">e</text>
</g>
<!-- 8302&#45;&gt;13925 -->
<g id="edge12" class="edge"><title>8302&#45;&gt;13925</title>
<path fill="none" stroke="black" d="M669.77,-580.826C684.369,-570.85 704.654,-555.838 720,-540 739.12,-520.267 757.03,-494.484 769.013,-475.752"/>
<polygon fill="black" stroke="black" points="772.042,-477.509 774.399,-467.18 766.115,-473.785 772.042,-477.509"/>
</g>
<!-- 883 -->
<g id="node14" class="node"><title>883</title>
<ellipse fill="none" stroke="red" cx="408" cy="-18" rx="27" ry="18"/>
<text text-anchor="middle" x="408" y="-13.8" font-family="Times,serif" font-size="14.00">s</text>
</g>
<!-- 9586&#45;&gt;883 -->
<g id="edge13" class="edge"><title>9586&#45;&gt;883</title>
<path fill="none" stroke="black" d="M154.657,-287.991C155.69,-269.87 158.324,-240.484 165,-216 171.755,-191.227 185.453,-188.551 188,-163"/>
<path fill="none" stroke="black" d="M188,-161C190.114,-114.075 207.828,-100.717 245,-72 282.4,-43.1071 336.132,-29.665 371.536,-23.6231"/>
<polygon fill="black" stroke="black" points="372.128,-27.0732 381.452,-22.0425 371.025,-20.1605 372.128,-27.0732"/>
</g>
<!-- 14953 -->
<g id="node15" class="node"><title>14953</title>
<ellipse fill="none" stroke="black" cx="209" cy="-450" rx="27" ry="18"/>
<text text-anchor="middle" x="209" y="-445.8" font-family="Times,serif" font-size="14.00">i</text>
</g>
<!-- 10611&#45;&gt;14953 -->
<g id="edge14" class="edge"><title>10611&#45;&gt;14953</title>
<path fill="none" stroke="black" d="M209,-575.871C209,-551.67 209,-507.211 209,-478.393"/>
<polygon fill="black" stroke="black" points="212.5,-478.189 209,-468.189 205.5,-478.189 212.5,-478.189"/>
</g>
<!-- 15457 -->
<g id="node16" class="node"><title>15457</title>
<ellipse fill="none" stroke="black" cx="425" cy="-522" rx="27" ry="18"/>
<text text-anchor="middle" x="425" y="-517.8" font-family="Times,serif" font-size="14.00">a</text>
</g>
<!-- 12148&#45;&gt;15457 -->
<g id="edge15" class="edge"><title>12148&#45;&gt;15457</title>
<path fill="none" stroke="black" d="M452.65,-576.765C448.288,-568.283 442.853,-557.714 437.959,-548.197"/>
<polygon fill="black" stroke="black" points="440.99,-546.439 433.304,-539.147 434.765,-549.641 440.99,-546.439"/>
</g>
<!-- 16485 -->
<g id="node17" class="node"><title>16485</title>
<ellipse fill="none" stroke="black" cx="569" cy="-522" rx="27" ry="18"/>
<text text-anchor="middle" x="569" y="-517.8" font-family="Times,serif" font-size="14.00">e</text>
</g>
<!-- 12148&#45;&gt;16485 -->
<g id="edge16" class="edge"><title>12148&#45;&gt;16485</title>
<path fill="none" stroke="black" d="M479.812,-580.807C497.002,-569.665 522.618,-553.062 541.993,-540.504"/>
<polygon fill="black" stroke="black" points="543.916,-543.429 550.403,-535.053 540.108,-537.555 543.916,-543.429"/>
</g>
<!-- 17513 -->
<g id="node18" class="node"><title>17513</title>
<ellipse fill="none" stroke="black" cx="707" cy="-450" rx="27" ry="18"/>
<text text-anchor="middle" x="707" y="-445.8" font-family="Times,serif" font-size="14.00">i</text>
</g>
<!-- 12148&#45;&gt;17513 -->
<g id="edge17" class="edge"><title>12148&#45;&gt;17513</title>
<path fill="none" stroke="black" d="M487.621,-589.692C539.03,-582.801 649.35,-565.407 677,-540 694.302,-524.102 701.631,-497.902 704.732,-478.035"/>
<polygon fill="black" stroke="black" points="708.214,-478.401 706.028,-468.034 701.272,-477.501 708.214,-478.401"/>
</g>
<!-- 18540 -->
<g id="node19" class="node"><title>18540</title>
<ellipse fill="none" stroke="black" cx="353" cy="-522" rx="27" ry="18"/>
<text text-anchor="middle" x="353" y="-517.8" font-family="Times,serif" font-size="14.00">l</text>
</g>
<!-- 12148&#45;&gt;18540 -->
<g id="edge18" class="edge"><title>12148&#45;&gt;18540</title>
<path fill="none" stroke="black" d="M442.188,-580.807C424.998,-569.665 399.382,-553.062 380.007,-540.504"/>
<polygon fill="black" stroke="black" points="381.892,-537.555 371.597,-535.053 378.084,-543.429 381.892,-537.555"/>
</g>
<!-- 19567 -->
<g id="node20" class="node"><title>19567</title>
<ellipse fill="none" stroke="black" cx="497" cy="-522" rx="27" ry="18"/>
<text text-anchor="middle" x="497" y="-517.8" font-family="Times,serif" font-size="14.00">o</text>
</g>
<!-- 12148&#45;&gt;19567 -->
<g id="edge19" class="edge"><title>12148&#45;&gt;19567</title>
<path fill="none" stroke="black" d="M469.35,-576.765C473.712,-568.283 479.147,-557.714 484.041,-548.197"/>
<polygon fill="black" stroke="black" points="487.235,-549.641 488.696,-539.147 481.01,-546.439 487.235,-549.641"/>
</g>
<!-- 371 -->
<g id="node21" class="node"><title>371</title>
<ellipse fill="none" stroke="red" cx="641" cy="-522" rx="27" ry="18"/>
<text text-anchor="middle" x="641" y="-517.8" font-family="Times,serif" font-size="14.00">s</text>
</g>
<!-- 12148&#45;&gt;371 -->
<g id="edge20" class="edge"><title>12148&#45;&gt;371</title>
<path fill="none" stroke="black" d="M484.694,-585.002C513.437,-575.135 563.234,-557.507 605,-540 606.817,-539.238 608.675,-538.436 610.543,-537.611"/>
<polygon fill="black" stroke="black" points="612.172,-540.715 619.82,-533.383 609.269,-534.345 612.172,-540.715"/>
</g>
<!-- 21111 -->
<g id="node22" class="node"><title>21111</title>
<ellipse fill="none" stroke="black" cx="281" cy="-522" rx="27" ry="18"/>
<text text-anchor="middle" x="281" y="-517.8" font-family="Times,serif" font-size="14.00">w</text>
</g>
<!-- 12148&#45;&gt;21111 -->
<g id="edge21" class="edge"><title>12148&#45;&gt;21111</title>
<path fill="none" stroke="black" d="M437.306,-585.002C408.563,-575.135 358.766,-557.507 317,-540 315.183,-539.238 313.325,-538.436 311.457,-537.611"/>
<polygon fill="black" stroke="black" points="312.731,-534.345 302.18,-533.383 309.828,-540.715 312.731,-534.345"/>
</g>
<!-- 22113 -->
<g id="node23" class="node"><title>22113</title>
<ellipse fill="none" stroke="black" cx="99" cy="-450" rx="27" ry="18"/>
<text text-anchor="middle" x="99" y="-445.8" font-family="Times,serif" font-size="14.00">a</text>
</g>
<!-- 12911&#45;&gt;22113 -->
<g id="edge22" class="edge"><title>12911&#45;&gt;22113</title>
<path fill="none" stroke="black" d="M99,-503.697C99,-495.983 99,-486.712 99,-478.112"/>
<polygon fill="black" stroke="black" points="102.5,-478.104 99,-468.104 95.5001,-478.104 102.5,-478.104"/>
</g>
<!-- 23155 -->
<g id="node24" class="node"><title>23155</title>
<ellipse fill="none" stroke="black" cx="787" cy="-378" rx="27" ry="18"/>
<text text-anchor="middle" x="787" y="-373.8" font-family="Times,serif" font-size="14.00">s</text>
</g>
<!-- 13925&#45;&gt;23155 -->
<g id="edge23" class="edge"><title>13925&#45;&gt;23155</title>
<path fill="none" stroke="black" d="M784.742,-431.697C785.072,-423.983 785.469,-414.712 785.838,-406.112"/>
<polygon fill="black" stroke="black" points="789.335,-406.245 786.267,-396.104 782.342,-405.945 789.335,-406.245"/>
</g>
<!-- 24164 -->
<g id="node25" class="node"><title>24164</title>
<ellipse fill="none" stroke="black" cx="209" cy="-378" rx="27" ry="18"/>
<text text-anchor="middle" x="209" y="-373.8" font-family="Times,serif" font-size="14.00">d</text>
</g>
<!-- 14953&#45;&gt;24164 -->
<g id="edge24" class="edge"><title>14953&#45;&gt;24164</title>
<path fill="none" stroke="black" d="M209,-431.697C209,-423.983 209,-414.712 209,-406.112"/>
<polygon fill="black" stroke="black" points="212.5,-406.104 209,-396.104 205.5,-406.104 212.5,-406.104"/>
</g>
<!-- 25202 -->
<g id="node26" class="node"><title>25202</title>
<ellipse fill="none" stroke="black" cx="391" cy="-306" rx="27" ry="18"/>
<text text-anchor="middle" x="391" y="-301.8" font-family="Times,serif" font-size="14.00">r</text>
</g>
<!-- 15457&#45;&gt;25202 -->
<g id="edge25" class="edge"><title>15457&#45;&gt;25202</title>
<path fill="none" stroke="black" d="M422.275,-503.849C416.379,-466.74 402.399,-378.747 395.298,-334.054"/>
<polygon fill="black" stroke="black" points="398.717,-333.262 393.691,-323.935 391.803,-334.361 398.717,-333.262"/>
</g>
<!-- 26227 -->
<g id="node27" class="node"><title>26227</title>
<ellipse fill="none" stroke="black" cx="603" cy="-450" rx="27" ry="18"/>
<text text-anchor="middle" x="603" y="-445.8" font-family="Times,serif" font-size="14.00">s</text>
</g>
<!-- 16485&#45;&gt;26227 -->
<g id="edge26" class="edge"><title>16485&#45;&gt;26227</title>
<path fill="none" stroke="black" d="M576.886,-504.765C580.904,-496.491 585.887,-486.232 590.42,-476.9"/>
<polygon fill="black" stroke="black" points="593.7,-478.158 594.921,-467.633 587.404,-475.099 593.7,-478.158"/>
</g>
<!-- 27491 -->
<g id="node28" class="node"><title>27491</title>
<ellipse fill="none" stroke="red" cx="715" cy="-306" rx="27" ry="18"/>
<text text-anchor="middle" x="715" y="-301.8" font-family="Times,serif" font-size="14.00">c</text>
</g>
<!-- 17513&#45;&gt;27491 -->
<g id="edge27" class="edge"><title>17513&#45;&gt;27491</title>
<path fill="none" stroke="black" d="M707.965,-431.871C709.328,-407.67 711.833,-363.211 713.457,-334.393"/>
<polygon fill="black" stroke="black" points="716.963,-334.37 714.032,-324.189 709.975,-333.977 716.963,-334.37"/>
</g>
<!-- 28265 -->
<g id="node29" class="node"><title>28265</title>
<ellipse fill="none" stroke="black" cx="353" cy="-450" rx="27" ry="18"/>
<text text-anchor="middle" x="353" y="-445.8" font-family="Times,serif" font-size="14.00">i</text>
</g>
<!-- 18540&#45;&gt;28265 -->
<g id="edge28" class="edge"><title>18540&#45;&gt;28265</title>
<path fill="none" stroke="black" d="M353,-503.697C353,-495.983 353,-486.712 353,-478.112"/>
<polygon fill="black" stroke="black" points="356.5,-478.104 353,-468.104 349.5,-478.104 356.5,-478.104"/>
</g>
<!-- 28777 -->
<g id="node30" class="node"><title>28777</title>
<ellipse fill="none" stroke="black" cx="535" cy="-378" rx="27" ry="18"/>
<text text-anchor="middle" x="535" y="-373.8" font-family="Times,serif" font-size="14.00">i</text>
</g>
<!-- 19567&#45;&gt;28777 -->
<g id="edge29" class="edge"><title>19567&#45;&gt;28777</title>
<path fill="none" stroke="black" d="M501.508,-504.153C508.022,-479.813 520.13,-434.568 527.864,-405.665"/>
<polygon fill="black" stroke="black" points="531.293,-406.39 530.498,-395.825 524.531,-404.58 531.293,-406.39"/>
</g>
<!-- 30316 -->
<g id="node31" class="node"><title>30316</title>
<ellipse fill="none" stroke="black" cx="468" cy="-450" rx="27" ry="18"/>
<text text-anchor="middle" x="468" y="-445.8" font-family="Times,serif" font-size="14.00">l</text>
</g>
<!-- 19567&#45;&gt;30316 -->
<g id="edge30" class="edge"><title>19567&#45;&gt;30316</title>
<path fill="none" stroke="black" d="M490.127,-504.411C486.733,-496.216 482.558,-486.14 478.753,-476.955"/>
<polygon fill="black" stroke="black" points="481.884,-475.369 474.823,-467.47 475.417,-478.048 481.884,-475.369"/>
</g>
<!-- 31337 -->
<g id="node32" class="node"><title>31337</title>
<ellipse fill="none" stroke="black" cx="281" cy="-450" rx="27" ry="18"/>
<text text-anchor="middle" x="281" y="-445.8" font-family="Times,serif" font-size="14.00">i</text>
</g>
<!-- 21111&#45;&gt;31337 -->
<g id="edge31" class="edge"><title>21111&#45;&gt;31337</title>
<path fill="none" stroke="black" d="M281,-503.697C281,-495.983 281,-486.712 281,-478.112"/>
<polygon fill="black" stroke="black" points="284.5,-478.104 281,-468.104 277.5,-478.104 284.5,-478.104"/>
</g>
<!-- 10084 -->
<g id="node33" class="node"><title>10084</title>
<ellipse fill="none" stroke="red" cx="116" cy="-90" rx="27" ry="18"/>
<text text-anchor="middle" x="116" y="-85.8" font-family="Times,serif" font-size="14.00">d</text>
</g>
<!-- 22113&#45;&gt;10084 -->
<g id="edge32" class="edge"><title>22113&#45;&gt;10084</title>
<path fill="none" stroke="black" d="M99,-431.951C99,-405.292 99,-352.115 99,-307 99,-307 99,-307 99,-233 99,-192.71 105.83,-146.444 110.832,-117.965"/>
<polygon fill="black" stroke="black" points="114.304,-118.434 112.641,-107.971 107.416,-117.187 114.304,-118.434"/>
</g>
<!-- 32627 -->
<g id="node34" class="node"><title>32627</title>
<ellipse fill="none" stroke="red" cx="788" cy="-306" rx="27" ry="18"/>
<text text-anchor="middle" x="788" y="-301.8" font-family="Times,serif" font-size="14.00">s</text>
</g>
<!-- 23155&#45;&gt;32627 -->
<g id="edge33" class="edge"><title>23155&#45;&gt;32627</title>
<path fill="none" stroke="black" d="M787.247,-359.697C787.357,-351.983 787.49,-342.712 787.613,-334.112"/>
<polygon fill="black" stroke="black" points="791.112,-334.153 787.756,-324.104 784.113,-334.053 791.112,-334.153"/>
</g>
<!-- 10085 -->
<g id="node35" class="node"><title>10085</title>
<ellipse fill="none" stroke="red" cx="201" cy="-234" rx="27" ry="18"/>
<text text-anchor="middle" x="201" y="-229.8" font-family="Times,serif" font-size="14.00">e</text>
</g>
<!-- 24164&#45;&gt;10085 -->
<g id="edge34" class="edge"><title>24164&#45;&gt;10085</title>
<path fill="none" stroke="black" d="M208.035,-359.871C206.672,-335.67 204.167,-291.211 202.543,-262.393"/>
<polygon fill="black" stroke="black" points="206.025,-261.977 201.968,-252.189 199.037,-262.37 206.025,-261.977"/>
</g>
<!-- 32873 -->
<g id="node36" class="node"><title>32873</title>
<ellipse fill="none" stroke="black" cx="308" cy="-234" rx="27" ry="18"/>
<text text-anchor="middle" x="308" y="-229.8" font-family="Times,serif" font-size="14.00">i</text>
</g>
<!-- 25202&#45;&gt;32873 -->
<g id="edge35" class="edge"><title>25202&#45;&gt;32873</title>
<path fill="none" stroke="black" d="M374.602,-291.17C362.359,-280.845 345.448,-266.582 331.73,-255.013"/>
<polygon fill="black" stroke="black" points="333.982,-252.334 324.082,-248.563 329.47,-257.685 333.982,-252.334"/>
</g>
<!-- 889 -->
<g id="node37" class="node"><title>889</title>
<ellipse fill="none" stroke="red" cx="391" cy="-234" rx="27" ry="18"/>
<text text-anchor="middle" x="391" y="-229.8" font-family="Times,serif" font-size="14.00">y</text>
</g>
<!-- 25202&#45;&gt;889 -->
<g id="edge36" class="edge"><title>25202&#45;&gt;889</title>
<path fill="none" stroke="black" d="M391,-287.697C391,-279.983 391,-270.712 391,-262.112"/>
<polygon fill="black" stroke="black" points="394.5,-262.104 391,-252.104 387.5,-262.104 394.5,-262.104"/>
</g>
<!-- 34409 -->
<g id="node38" class="node"><title>34409</title>
<ellipse fill="none" stroke="black" cx="620" cy="-378" rx="27" ry="18"/>
<text text-anchor="middle" x="620" y="-373.8" font-family="Times,serif" font-size="14.00">i</text>
</g>
<!-- 26227&#45;&gt;34409 -->
<g id="edge37" class="edge"><title>26227&#45;&gt;34409</title>
<path fill="none" stroke="black" d="M607.115,-432.055C609.008,-424.261 611.3,-414.822 613.424,-406.079"/>
<polygon fill="black" stroke="black" points="616.846,-406.819 615.805,-396.275 610.043,-405.167 616.846,-406.819"/>
</g>
<!-- 35425 -->
<g id="node39" class="node"><title>35425</title>
<ellipse fill="none" stroke="black" cx="664" cy="-90" rx="27" ry="18"/>
<text text-anchor="middle" x="664" y="-85.8" font-family="Times,serif" font-size="14.00">a</text>
</g>
<!-- 27491&#45;&gt;35425 -->
<g id="edge38" class="edge"><title>27491&#45;&gt;35425</title>
<path fill="none" stroke="black" d="M719.058,-287.757C725.336,-257.402 734.746,-192.999 715,-144 709.727,-130.916 699.508,-119.255 689.594,-110.225"/>
<polygon fill="black" stroke="black" points="691.684,-107.407 681.809,-103.571 687.136,-112.729 691.684,-107.407"/>
</g>
<!-- 36459 -->
<g id="node40" class="node"><title>36459</title>
<ellipse fill="none" stroke="black" cx="353" cy="-378" rx="27" ry="18"/>
<text text-anchor="middle" x="353" y="-373.8" font-family="Times,serif" font-size="14.00">k</text>
</g>
<!-- 28265&#45;&gt;36459 -->
<g id="edge39" class="edge"><title>28265&#45;&gt;36459</title>
<path fill="none" stroke="black" d="M353,-431.697C353,-423.983 353,-414.712 353,-406.112"/>
<polygon fill="black" stroke="black" points="356.5,-406.104 353,-396.104 349.5,-406.104 356.5,-406.104"/>
</g>
<!-- 37732 -->
<g id="node41" class="node"><title>37732</title>
<ellipse fill="none" stroke="red" cx="535" cy="-162" rx="27" ry="18"/>
<text text-anchor="middle" x="535" y="-157.8" font-family="Times,serif" font-size="14.00">d</text>
</g>
<!-- 28777&#45;&gt;37732 -->
<g id="edge40" class="edge"><title>28777&#45;&gt;37732</title>
<path fill="none" stroke="black" d="M535,-359.849C535,-322.832 535,-235.181 535,-190.386"/>
<polygon fill="black" stroke="black" points="538.5,-190.232 535,-180.232 531.5,-190.232 538.5,-190.232"/>
</g>
<!-- 38511 -->
<g id="node42" class="node"><title>38511</title>
<ellipse fill="none" stroke="black" cx="463" cy="-378" rx="27" ry="18"/>
<text text-anchor="middle" x="463" y="-373.8" font-family="Times,serif" font-size="14.00">o</text>
</g>
<!-- 30316&#45;&gt;38511 -->
<g id="edge41" class="edge"><title>30316&#45;&gt;38511</title>
<path fill="none" stroke="black" d="M466.764,-431.697C466.213,-423.983 465.551,-414.712 464.937,-406.112"/>
<polygon fill="black" stroke="black" points="468.425,-405.83 464.222,-396.104 461.443,-406.328 468.425,-405.83"/>
</g>
<!-- 36452 -->
<g id="node43" class="node"><title>36452</title>
<ellipse fill="none" stroke="black" cx="281" cy="-378" rx="27" ry="18"/>
<text text-anchor="middle" x="281" y="-373.8" font-family="Times,serif" font-size="14.00">d</text>
</g>
<!-- 31337&#45;&gt;36452 -->
<g id="edge42" class="edge"><title>31337&#45;&gt;36452</title>
<path fill="none" stroke="black" d="M281,-431.697C281,-423.983 281,-414.712 281,-406.112"/>
<polygon fill="black" stroke="black" points="284.5,-406.104 281,-396.104 277.5,-406.104 284.5,-406.104"/>
</g>
<!-- 10084&#45;&gt;883 -->
<g id="edge43" class="edge"><title>10084&#45;&gt;883</title>
<path fill="none" stroke="black" d="M140.175,-81.5481C150.548,-78.446 162.828,-74.8995 174,-72 243.947,-53.8467 326.555,-35.9574 372.541,-26.3112"/>
<polygon fill="black" stroke="black" points="373.524,-29.6814 382.597,-24.2108 372.093,-22.8293 373.524,-29.6814"/>
</g>
<!-- 39525 -->
<g id="node44" class="node"><title>39525</title>
<ellipse fill="none" stroke="black" cx="789" cy="-234" rx="27" ry="18"/>
<text text-anchor="middle" x="789" y="-229.8" font-family="Times,serif" font-size="14.00">e</text>
</g>
<!-- 32627&#45;&gt;39525 -->
<g id="edge44" class="edge"><title>32627&#45;&gt;39525</title>
<path fill="none" stroke="black" d="M788.247,-287.697C788.357,-279.983 788.49,-270.712 788.613,-262.112"/>
<polygon fill="black" stroke="black" points="792.112,-262.153 788.756,-252.104 785.113,-262.053 792.112,-262.153"/>
</g>
<!-- 10085&#45;&gt;883 -->
<g id="edge45" class="edge"><title>10085&#45;&gt;883</title>
<path fill="none" stroke="black" d="M195.128,-216.141C190.877,-202.033 186.173,-181.326 188,-163"/>
</g>
<!-- 353 -->
<g id="node45" class="node"><title>353</title>
<ellipse fill="none" stroke="red" cx="353" cy="-162" rx="27" ry="18"/>
<text text-anchor="middle" x="353" y="-157.8" font-family="Times,serif" font-size="14.00">a</text>
</g>
<!-- 32873&#45;&gt;353 -->
<g id="edge46" class="edge"><title>32873&#45;&gt;353</title>
<path fill="none" stroke="black" d="M318.211,-217.116C323.85,-208.345 330.973,-197.264 337.304,-187.416"/>
<polygon fill="black" stroke="black" points="340.366,-189.126 342.829,-178.821 334.477,-185.34 340.366,-189.126"/>
</g>
<!-- 39013 -->
<g id="node46" class="node"><title>39013</title>
<ellipse fill="none" stroke="black" cx="372" cy="-90" rx="27" ry="18"/>
<text text-anchor="middle" x="372" y="-85.8" font-family="Times,serif" font-size="14.00">e</text>
</g>
<!-- 32873&#45;&gt;39013 -->
<g id="edge47" class="edge"><title>32873&#45;&gt;39013</title>
<path fill="none" stroke="black" d="M306.358,-215.994C305.299,-197.358 305.8,-167.048 317,-144 323.512,-130.599 334.903,-118.752 345.635,-109.676"/>
<polygon fill="black" stroke="black" points="347.994,-112.272 353.622,-103.296 343.625,-106.803 347.994,-112.272"/>
</g>
<!-- 40565 -->
<g id="node47" class="node"><title>40565</title>
<ellipse fill="none" stroke="black" cx="243" cy="-162" rx="27" ry="18"/>
<text text-anchor="middle" x="243" y="-157.8" font-family="Times,serif" font-size="14.00">u</text>
</g>
<!-- 32873&#45;&gt;40565 -->
<g id="edge48" class="edge"><title>32873&#45;&gt;40565</title>
<path fill="none" stroke="black" d="M294.215,-218.155C285.339,-208.596 273.637,-195.994 263.66,-185.249"/>
<polygon fill="black" stroke="black" points="266.134,-182.77 256.765,-177.824 261.005,-187.533 266.134,-182.77"/>
</g>
<!-- 41581 -->
<g id="node48" class="node"><title>41581</title>
<ellipse fill="none" stroke="black" cx="631" cy="-306" rx="27" ry="18"/>
<text text-anchor="middle" x="631" y="-301.8" font-family="Times,serif" font-size="14.00">m</text>
</g>
<!-- 34409&#45;&gt;41581 -->
<g id="edge49" class="edge"><title>34409&#45;&gt;41581</title>
<path fill="none" stroke="black" d="M622.663,-360.055C623.874,-352.346 625.339,-343.027 626.7,-334.364"/>
<polygon fill="black" stroke="black" points="630.19,-334.697 628.285,-324.275 623.275,-333.611 630.19,-334.697"/>
</g>
<!-- 876 -->
<g id="node49" class="node"><title>876</title>
<ellipse fill="none" stroke="red" cx="609" cy="-18" rx="27" ry="18"/>
<text text-anchor="middle" x="609" y="-13.8" font-family="Times,serif" font-size="14.00">l</text>
</g>
<!-- 35425&#45;&gt;876 -->
<g id="edge50" class="edge"><title>35425&#45;&gt;876</title>
<path fill="none" stroke="black" d="M652.066,-73.811C644.786,-64.5464 635.337,-52.5203 627.146,-42.0944"/>
<polygon fill="black" stroke="black" points="629.841,-39.8601 620.911,-34.1593 624.337,-44.1849 629.841,-39.8601"/>
</g>
<!-- 869 -->
<g id="node50" class="node"><title>869</title>
<ellipse fill="none" stroke="red" cx="300" cy="-306" rx="27" ry="18"/>
<text text-anchor="middle" x="300" y="-301.8" font-family="Times,serif" font-size="14.00">e</text>
</g>
<!-- 36459&#45;&gt;869 -->
<g id="edge51" class="edge"><title>36459&#45;&gt;869</title>
<path fill="none" stroke="black" d="M341.238,-361.465C334.376,-352.402 325.581,-340.786 317.878,-330.612"/>
<polygon fill="black" stroke="black" points="320.556,-328.352 311.73,-322.492 314.976,-332.577 320.556,-328.352"/>
</g>
<!-- 37732&#45;&gt;883 -->
<g id="edge53" class="edge"><title>37732&#45;&gt;883</title>
<path fill="none" stroke="black" d="M527.304,-144.633C517.908,-125.752 500.686,-94.4336 480,-72 467.191,-58.1091 450.283,-45.4446 436.071,-35.9812"/>
<polygon fill="black" stroke="black" points="437.928,-33.0141 427.631,-30.5201 434.126,-38.8911 437.928,-33.0141"/>
</g>
<!-- 34913 -->
<g id="node51" class="node"><title>34913</title>
<ellipse fill="none" stroke="black" cx="554" cy="-90" rx="27" ry="18"/>
<text text-anchor="middle" x="554" y="-85.8" font-family="Times,serif" font-size="14.00">a</text>
</g>
<!-- 37732&#45;&gt;34913 -->
<g id="edge52" class="edge"><title>37732&#45;&gt;34913</title>
<path fill="none" stroke="black" d="M539.599,-144.055C541.746,-136.145 544.353,-126.54 546.756,-117.688"/>
<polygon fill="black" stroke="black" points="550.201,-118.357 549.443,-107.789 543.446,-116.523 550.201,-118.357"/>
</g>
<!-- 42599 -->
<g id="node52" class="node"><title>42599</title>
<ellipse fill="none" stroke="black" cx="463" cy="-306" rx="27" ry="18"/>
<text text-anchor="middle" x="463" y="-301.8" font-family="Times,serif" font-size="14.00">g</text>
</g>
<!-- 38511&#45;&gt;42599 -->
<g id="edge54" class="edge"><title>38511&#45;&gt;42599</title>
<path fill="none" stroke="black" d="M463,-359.697C463,-351.983 463,-342.712 463,-334.112"/>
<polygon fill="black" stroke="black" points="466.5,-334.104 463,-324.104 459.5,-334.104 466.5,-334.104"/>
</g>
<!-- 36452&#45;&gt;869 -->
<g id="edge55" class="edge"><title>36452&#45;&gt;869</title>
<path fill="none" stroke="black" d="M285.599,-360.055C287.746,-352.145 290.353,-342.54 292.756,-333.688"/>
<polygon fill="black" stroke="black" points="296.201,-334.357 295.443,-323.789 289.446,-332.523 296.201,-334.357"/>
</g>
<!-- 39525&#45;&gt;883 -->
<g id="edge56" class="edge"><title>39525&#45;&gt;883</title>
<path fill="none" stroke="black" d="M784.866,-216.119C775.749,-182.724 750.59,-108.322 700,-72 659.594,-42.9897 514.024,-27.5901 444.916,-21.7732"/>
<polygon fill="black" stroke="black" points="445.155,-18.2811 434.902,-20.9526 444.583,-25.2578 445.155,-18.2811"/>
</g>
<!-- 39013&#45;&gt;883 -->
<g id="edge57" class="edge"><title>39013&#45;&gt;883</title>
<path fill="none" stroke="black" d="M380.35,-72.7646C384.712,-64.2831 390.147,-53.7144 395.041,-44.1974"/>
<polygon fill="black" stroke="black" points="398.235,-45.6409 399.696,-35.1473 392.01,-42.4395 398.235,-45.6409"/>
</g>
<!-- 10093 -->
<g id="node53" class="node"><title>10093</title>
<ellipse fill="none" stroke="red" cx="281" cy="-90" rx="27" ry="18"/>
<text text-anchor="middle" x="281" y="-85.8" font-family="Times,serif" font-size="14.00">m</text>
</g>
<!-- 40565&#45;&gt;10093 -->
<g id="edge58" class="edge"><title>40565&#45;&gt;10093</title>
<path fill="none" stroke="black" d="M251.813,-144.765C256.418,-136.283 262.155,-125.714 267.321,-116.197"/>
<polygon fill="black" stroke="black" points="270.539,-117.606 272.234,-107.147 264.387,-114.266 270.539,-117.606"/>
</g>
<!-- 43617 -->
<g id="node54" class="node"><title>43617</title>
<ellipse fill="none" stroke="black" cx="655" cy="-234" rx="27" ry="18"/>
<text text-anchor="middle" x="655" y="-229.8" font-family="Times,serif" font-size="14.00">a</text>
</g>
<!-- 41581&#45;&gt;43617 -->
<g id="edge59" class="edge"><title>41581&#45;&gt;43617</title>
<path fill="none" stroke="black" d="M636.81,-288.055C639.551,-280.059 642.887,-270.331 645.949,-261.4"/>
<polygon fill="black" stroke="black" points="649.311,-262.384 649.244,-251.789 642.69,-260.113 649.311,-262.384"/>
</g>
<!-- 34913&#45;&gt;876 -->
<g id="edge60" class="edge"><title>34913&#45;&gt;876</title>
<path fill="none" stroke="black" d="M565.934,-73.811C573.214,-64.5464 582.663,-52.5203 590.854,-42.0944"/>
<polygon fill="black" stroke="black" points="593.663,-44.1849 597.089,-34.1593 588.159,-39.8601 593.663,-44.1849"/>
</g>
<!-- 42599&#45;&gt;889 -->
<g id="edge62" class="edge"><title>42599&#45;&gt;889</title>
<path fill="none" stroke="black" d="M448.43,-290.834C438.25,-280.938 424.476,-267.546 412.969,-256.359"/>
<polygon fill="black" stroke="black" points="415.405,-253.846 405.796,-249.385 410.526,-258.865 415.405,-253.846"/>
</g>
<!-- 44137 -->
<g id="node55" class="node"><title>44137</title>
<ellipse fill="none" stroke="black" cx="463" cy="-234" rx="27" ry="18"/>
<text text-anchor="middle" x="463" y="-229.8" font-family="Times,serif" font-size="14.00">i</text>
</g>
<!-- 42599&#45;&gt;44137 -->
<g id="edge61" class="edge"><title>42599&#45;&gt;44137</title>
<path fill="none" stroke="black" d="M463,-287.697C463,-279.983 463,-270.712 463,-262.112"/>
<polygon fill="black" stroke="black" points="466.5,-262.104 463,-252.104 459.5,-262.104 466.5,-262.104"/>
</g>
<!-- 10093&#45;&gt;883 -->
<g id="edge63" class="edge"><title>10093&#45;&gt;883</title>
<path fill="none" stroke="black" d="M301.124,-77.9083C321.994,-66.405 354.838,-48.3017 378.612,-35.1983"/>
<polygon fill="black" stroke="black" points="380.482,-38.164 387.55,-30.2716 377.103,-32.0336 380.482,-38.164"/>
</g>
<!-- 10092 -->
<g id="node56" class="node"><title>10092</title>
<ellipse fill="none" stroke="red" cx="679" cy="-162" rx="27" ry="18"/>
<text text-anchor="middle" x="679" y="-157.8" font-family="Times,serif" font-size="14.00">l</text>
</g>
<!-- 43617&#45;&gt;10092 -->
<g id="edge64" class="edge"><title>43617&#45;&gt;10092</title>
<path fill="none" stroke="black" d="M660.81,-216.055C663.551,-208.059 666.887,-198.331 669.949,-189.4"/>
<polygon fill="black" stroke="black" points="673.311,-190.384 673.244,-179.789 666.69,-188.113 673.311,-190.384"/>
</g>
<!-- 44137&#45;&gt;39013 -->
<g id="edge66" class="edge"><title>44137&#45;&gt;39013</title>
<path fill="none" stroke="black" d="M452.109,-217.349C444.874,-206.859 435.228,-192.694 427,-180 413.034,-158.454 397.722,-133.566 386.808,-115.596"/>
<polygon fill="black" stroke="black" points="389.707,-113.625 381.533,-106.884 383.719,-117.251 389.707,-113.625"/>
</g>
<!-- 45155 -->
<g id="node57" class="node"><title>45155</title>
<ellipse fill="none" stroke="black" cx="607" cy="-162" rx="27" ry="18"/>
<text text-anchor="middle" x="607" y="-157.8" font-family="Times,serif" font-size="14.00">c</text>
</g>
<!-- 44137&#45;&gt;45155 -->
<g id="edge65" class="edge"><title>44137&#45;&gt;45155</title>
<path fill="none" stroke="black" d="M484.248,-222.671C508.602,-210.832 548.719,-191.331 576.428,-177.862"/>
<polygon fill="black" stroke="black" points="578.202,-180.891 585.665,-173.371 575.141,-174.595 578.202,-180.891"/>
</g>
<!-- 46707 -->
<g id="node58" class="node"><title>46707</title>
<ellipse fill="none" stroke="black" cx="463" cy="-162" rx="27" ry="18"/>
<text text-anchor="middle" x="463" y="-157.8" font-family="Times,serif" font-size="14.00">s</text>
</g>
<!-- 44137&#45;&gt;46707 -->
<g id="edge67" class="edge"><title>44137&#45;&gt;46707</title>
<path fill="none" stroke="black" d="M463,-215.697C463,-207.983 463,-198.712 463,-190.112"/>
<polygon fill="black" stroke="black" points="466.5,-190.104 463,-180.104 459.5,-190.104 466.5,-190.104"/>
</g>
<!-- 10092&#45;&gt;883 -->
<g id="edge68" class="edge"><title>10092&#45;&gt;883</title>
<path fill="none" stroke="black" d="M664.815,-146.443C640.836,-121.887 594.443,-74.6293 590,-72 543.92,-44.7288 482.897,-30.714 444.538,-24.1209"/>
<polygon fill="black" stroke="black" points="444.786,-20.6148 434.352,-22.4532 443.655,-27.5229 444.786,-20.6148"/>
</g>
<!-- 45155&#45;&gt;35425 -->
<g id="edge69" class="edge"><title>45155&#45;&gt;35425</title>
<path fill="none" stroke="black" d="M619.368,-145.811C626.912,-136.546 636.705,-124.52 645.195,-114.094"/>
<polygon fill="black" stroke="black" points="648.056,-116.124 651.656,-106.159 642.628,-111.704 648.056,-116.124"/>
</g>
<!-- 10100 -->
<g id="node59" class="node"><title>10100</title>
<ellipse fill="none" stroke="red" cx="444" cy="-90" rx="27" ry="18"/>
<text text-anchor="middle" x="444" y="-85.8" font-family="Times,serif" font-size="14.00">t</text>
</g>
<!-- 46707&#45;&gt;10100 -->
<g id="edge71" class="edge"><title>46707&#45;&gt;10100</title>
<path fill="none" stroke="black" d="M458.401,-144.055C456.254,-136.145 453.647,-126.54 451.244,-117.688"/>
<polygon fill="black" stroke="black" points="454.554,-116.523 448.557,-107.789 447.799,-118.357 454.554,-116.523"/>
</g>
<!-- 10100&#45;&gt;883 -->
<g id="edge73" class="edge"><title>10100&#45;&gt;883</title>
<path fill="none" stroke="black" d="M435.65,-72.7646C431.288,-64.2831 425.853,-53.7144 420.959,-44.1974"/>
<polygon fill="black" stroke="black" points="423.99,-42.4395 416.304,-35.1473 417.765,-45.6409 423.99,-42.4395"/>
</g>
</g>
</svg>
