<?xml version="1.0" encoding="UTF-8" standalone="no"?>
<!DOCTYPE svg PUBLIC "-//W3C//DTD SVG 1.1//EN"
 "http://www.w3.org/Graphics/SVG/1.1/DTD/svg11.dtd">
<!-- Generated by graphviz version 2.38.0 (20140413.2041)
 -->
<!-- Title: Dawg Pages: 1 -->
<svg width="1296pt" height="712pt"
 viewBox="0.00 0.00 1296.00 712.00" xmlns="http://www.w3.org/2000/svg" xmlns:xlink="http://www.w3.org/1999/xlink">
<g id="graph0" class="graph" transform="scale(1 1) rotate(0) translate(4 708)">
<title>Dawg</title>
<polygon fill="white" stroke="none" points="-4,4 -4,-708 1292,-708 1292,4 -4,4"/>
<!-- 2672 -->
<g id="node1" class="node"><title>2672</title>
<ellipse fill="none" stroke="black" cx="27" cy="-555" rx="27" ry="18"/>
<text text-anchor="middle" x="27" y="-550.8" font-family="Times,serif" font-size="14.00">p</text>
</g>
<!-- 3692 -->
<g id="node2" class="node"><title>3692</title>
<ellipse fill="none" stroke="black" cx="117" cy="-555" rx="27" ry="18"/>
<text text-anchor="middle" x="117" y="-550.8" font-family="Times,serif" font-size="14.00">l</text>
</g>
<!-- 2672&#45;&gt;3692 -->
<g id="edge1" class="edge"><title>2672&#45;&gt;3692</title>
<path fill="none" stroke="black" d="M54.4029,-555C62.3932,-555 71.3106,-555 79.8241,-555"/>
<polygon fill="black" stroke="black" points="79.919,-558.5 89.919,-555 79.919,-551.5 79.919,-558.5"/>
</g>
<!-- 4705 -->
<g id="node3" class="node"><title>4705</title>
<ellipse fill="none" stroke="black" cx="207" cy="-555" rx="27" ry="18"/>
<text text-anchor="middle" x="207" y="-550.8" font-family="Times,serif" font-size="14.00">a</text>
</g>
<!-- 3692&#45;&gt;4705 -->
<g id="edge2" class="edge"><title>3692&#45;&gt;4705</title>
<path fill="none" stroke="black" d="M144.403,-555C152.393,-555 161.311,-555 169.824,-555"/>
<polygon fill="black" stroke="black" points="169.919,-558.5 179.919,-555 169.919,-551.5 169.919,-558.5"/>
</g>
<!-- 5742 -->
<g id="node4" class="node"><title>5742</title>
<ellipse fill="none" stroke="black" cx="297" cy="-555" rx="27" ry="18"/>
<text text-anchor="middle" x="297" y="-550.8" font-family="Times,serif" font-size="14.00">n</text>
</g>
<!-- 4705&#45;&gt;5742 -->
<g id="edge3" class="edge"><title>4705&#45;&gt;5742</title>
<path fill="none" stroke="black" d="M234.403,-555C242.393,-555 251.311,-555 259.824,-555"/>
<polygon fill="black" stroke="black" points="259.919,-558.5 269.919,-555 259.919,-551.5 259.919,-558.5"/>
</g>
<!-- 7013 -->
<g id="node5" class="node"><title>7013</title>
<ellipse fill="none" stroke="red" cx="391" cy="-555" rx="27" ry="18"/>
<ellipse fill="none" stroke="red" cx="391" cy="-555" rx="31" ry="22"/>
<text text-anchor="middle" x="391" y="-550.8" font-family="Times,serif" font-size="14.00">e</text>
</g>
<!-- 5742&#45;&gt;7013 -->
<g id="edge4" class="edge"><title>5742&#45;&gt;7013</title>
<path fill="none" stroke="black" d="M324.117,-555C332.136,-555 341.152,-555 349.881,-555"/>
<polygon fill="black" stroke="black" points="349.92,-558.5 359.92,-555 349.919,-551.5 349.92,-558.5"/>
</g>
<!-- 356 -->
<g id="node6" class="node"><title>356</title>
<ellipse fill="none" stroke="red" cx="489" cy="-682" rx="27" ry="18"/>
<ellipse fill="none" stroke="red" cx="489" cy="-682" rx="31" ry="22"/>
<text text-anchor="middle" x="489" y="-677.8" font-family="Times,serif" font-size="14.00">d</text>
</g>
<!-- 7013&#45;&gt;356 -->
<g id="edge5" class="edge"><title>7013&#45;&gt;356</title>
<path fill="none" stroke="black" d="M404.476,-575.183C417.109,-595.105 437.638,-626.109 458,-651 459.618,-652.978 461.338,-654.98 463.104,-656.964"/>
<polygon fill="black" stroke="black" points="460.661,-659.477 470.023,-664.438 465.798,-654.722 460.661,-659.477"/>
</g>
<!-- 7276 -->
<g id="node7" class="node"><title>7276</title>
<ellipse fill="none" stroke="black" cx="489" cy="-532" rx="27" ry="18"/>
<text text-anchor="middle" x="489" y="-527.8" font-family="Times,serif" font-size="14.00">l</text>
</g>
<!-- 7013&#45;&gt;7276 -->
<g id="edge6" class="edge"><title>7013&#45;&gt;7276</title>
<path fill="none" stroke="black" d="M420.543,-548.162C430.847,-545.693 442.59,-542.879 453.359,-540.299"/>
<polygon fill="black" stroke="black" points="454.397,-543.65 463.306,-537.916 452.766,-536.843 454.397,-543.65"/>
</g>
<!-- 8302 -->
<g id="node8" class="node"><title>8302</title>
<ellipse fill="none" stroke="black" cx="489" cy="-624" rx="27" ry="18"/>
<text text-anchor="middle" x="489" y="-619.8" font-family="Times,serif" font-size="14.00">n</text>
</g>
<!-- 7013&#45;&gt;8302 -->
<g id="edge7" class="edge"><title>7013&#45;&gt;8302</title>
<path fill="none" stroke="black" d="M413.306,-570.313C427.528,-580.536 446.335,-594.053 461.519,-604.967"/>
<polygon fill="black" stroke="black" points="459.815,-608.053 469.978,-611.047 463.901,-602.368 459.815,-608.053"/>
</g>
<!-- 9586 -->
<g id="node9" class="node"><title>9586</title>
<ellipse fill="none" stroke="red" cx="865" cy="-578" rx="27" ry="18"/>
<ellipse fill="none" stroke="red" cx="865" cy="-578" rx="31" ry="22"/>
<text text-anchor="middle" x="865" y="-573.8" font-family="Times,serif" font-size="14.00">r</text>
</g>
<!-- 7013&#45;&gt;9586 -->
<g id="edge8" class="edge"><title>7013&#45;&gt;9586</title>
<path fill="none" stroke="black" d="M421.124,-560.626C458.964,-567.436 527.155,-578 586,-578 586,-578 586,-578 682,-578 730.602,-578 786.504,-578 823.388,-578"/>
<polygon fill="black" stroke="black" points="823.729,-581.5 833.729,-578 823.729,-574.5 823.729,-581.5"/>
</g>
<!-- 10611 -->
<g id="node10" class="node"><title>10611</title>
<ellipse fill="none" stroke="red" cx="489" cy="-474" rx="27" ry="18"/>
<ellipse fill="none" stroke="red" cx="489" cy="-474" rx="31" ry="22"/>
<text text-anchor="middle" x="489" y="-469.8" font-family="Times,serif" font-size="14.00">s</text>
</g>
<!-- 7013&#45;&gt;10611 -->
<g id="edge9" class="edge"><title>7013&#45;&gt;10611</title>
<path fill="none" stroke="black" d="M411.891,-538.217C426.015,-526.3 445.152,-510.153 460.703,-497.032"/>
<polygon fill="black" stroke="black" points="463.077,-499.608 468.463,-490.485 458.563,-494.258 463.077,-499.608"/>
</g>
<!-- 12148 -->
<g id="node11" class="node"><title>12148</title>
<ellipse fill="none" stroke="red" cx="489" cy="-237" rx="27" ry="18"/>
<ellipse fill="none" stroke="red" cx="489" cy="-237" rx="31" ry="22"/>
<text text-anchor="middle" x="489" y="-232.8" font-family="Times,serif" font-size="14.00">t</text>
</g>
<!-- 7013&#45;&gt;12148 -->
<g id="edge10" class="edge"><title>7013&#45;&gt;12148</title>
<path fill="none" stroke="black" d="M398.448,-533.641C415.008,-478.784 459.097,-332.741 478.551,-268.3"/>
<polygon fill="black" stroke="black" points="481.914,-269.269 481.454,-258.684 475.213,-267.246 481.914,-269.269"/>
</g>
<!-- 12911 -->
<g id="node12" class="node"><title>12911</title>
<ellipse fill="none" stroke="black" cx="587" cy="-532" rx="27" ry="18"/>
<text text-anchor="middle" x="587" y="-527.8" font-family="Times,serif" font-size="14.00">o</text>
</g>
<!-- 7276&#45;&gt;12911 -->
<g id="edge11" class="edge"><title>7276&#45;&gt;12911</title>
<path fill="none" stroke="black" d="M516.232,-532C526.498,-532 538.448,-532 549.527,-532"/>
<polygon fill="black" stroke="black" points="549.799,-535.5 559.799,-532 549.799,-528.5 549.799,-535.5"/>
</g>
<!-- 13925 -->
<g id="node13" class="node"><title>13925</title>
<ellipse fill="none" stroke="black" cx="681" cy="-636" rx="27" ry="18"/>
<text text-anchor="middle" x="681" y="-631.8" font-family="Times,serif" font-size="14.00">e</text>
</g>
<!-- 8302&#45;&gt;13925 -->
<g id="edge12" class="edge"><title>8302&#45;&gt;13925</title>
<path fill="none" stroke="black" d="M516.02,-625.643C549.044,-627.729 606.194,-631.339 643.549,-633.698"/>
<polygon fill="black" stroke="black" points="643.789,-637.22 653.99,-634.357 644.23,-630.234 643.789,-637.22"/>
</g>
<!-- 883 -->
<g id="node14" class="node"><title>883</title>
<ellipse fill="none" stroke="red" cx="1257" cy="-382" rx="27" ry="18"/>
<ellipse fill="none" stroke="red" cx="1257" cy="-382" rx="31" ry="22"/>
<text text-anchor="middle" x="1257" y="-377.8" font-family="Times,serif" font-size="14.00">s</text>
</g>
<!-- 9586&#45;&gt;883 -->
<g id="edge13" class="edge"><title>9586&#45;&gt;883</title>
<path fill="none" stroke="black" d="M895.907,-580.385C922.119,-582.959 961.07,-587.963 994,-597 1024.56,-605.388 1028.52,-620.355 1060,-624"/>
<path fill="none" stroke="black" d="M1062,-624C1124.42,-629.218 1147.65,-611.153 1190,-565 1229.41,-522.056 1245.68,-453.847 1252.1,-413.952"/>
<polygon fill="black" stroke="black" points="1255.57,-414.382 1253.59,-403.974 1248.65,-413.345 1255.57,-414.382"/>
</g>
<!-- 14953 -->
<g id="node15" class="node"><title>14953</title>
<ellipse fill="none" stroke="black" cx="681" cy="-475" rx="27" ry="18"/>
<text text-anchor="middle" x="681" y="-470.8" font-family="Times,serif" font-size="14.00">i</text>
</g>
<!-- 10611&#45;&gt;14953 -->
<g id="edge14" class="edge"><title>10611&#45;&gt;14953</title>
<path fill="none" stroke="black" d="M520.106,-474.158C553.63,-474.335 607.805,-474.62 643.661,-474.809"/>
<polygon fill="black" stroke="black" points="643.688,-478.309 653.706,-474.862 643.725,-471.309 643.688,-478.309"/>
</g>
<!-- 15457 -->
<g id="node16" class="node"><title>15457</title>
<ellipse fill="none" stroke="black" cx="587" cy="-318" rx="27" ry="18"/>
<text text-anchor="middle" x="587" y="-313.8" font-family="Times,serif" font-size="14.00">a</text>
</g>
<!-- 12148&#45;&gt;15457 -->
<g id="edge15" class="edge"><title>12148&#45;&gt;15457</title>
<path fill="none" stroke="black" d="M509.891,-253.783C524.95,-266.489 545.709,-284.004 561.743,-297.533"/>
<polygon fill="black" stroke="black" points="559.742,-300.424 569.642,-304.198 564.256,-295.074 559.742,-300.424"/>
</g>
<!-- 16485 -->
<g id="node17" class="node"><title>16485</title>
<ellipse fill="none" stroke="black" cx="587" cy="-374" rx="27" ry="18"/>
<text text-anchor="middle" x="587" y="-369.8" font-family="Times,serif" font-size="14.00">e</text>
</g>
<!-- 12148&#45;&gt;16485 -->
<g id="edge16" class="edge"><title>12148&#45;&gt;16485</title>
<path fill="none" stroke="black" d="M500.496,-257.512C512.466,-280.018 533.33,-316.704 556,-345 558.083,-347.601 560.387,-350.203 562.764,-352.722"/>
<polygon fill="black" stroke="black" points="560.429,-355.338 569.969,-359.948 565.386,-350.395 560.429,-355.338"/>
</g>
<!-- 17513 -->
<g id="node18" class="node"><title>17513</title>
<ellipse fill="none" stroke="black" cx="681" cy="-24" rx="27" ry="18"/>
<text text-anchor="middle" x="681" y="-19.8" font-family="Times,serif" font-size="14.00">i</text>
</g>
<!-- 12148&#45;&gt;17513 -->
<g id="edge17" class="edge"><title>12148&#45;&gt;17513</title>
<path fill="none" stroke="black" d="M492.596,-214.987C497.975,-179.094 513.607,-107.873 556,-67 579.927,-43.9317 616.845,-33.1912 644.181,-28.2193"/>
<polygon fill="black" stroke="black" points="644.842,-31.6577 654.142,-26.5826 643.707,-24.7504 644.842,-31.6577"/>
</g>
<!-- 18540 -->
<g id="node19" class="node"><title>18540</title>
<ellipse fill="none" stroke="black" cx="587" cy="-210" rx="27" ry="18"/>
<text text-anchor="middle" x="587" y="-205.8" font-family="Times,serif" font-size="14.00">l</text>
</g>
<!-- 12148&#45;&gt;18540 -->
<g id="edge18" class="edge"><title>12148&#45;&gt;18540</title>
<path fill="none" stroke="black" d="M518.025,-229.118C528.618,-226.139 540.791,-222.715 551.882,-219.596"/>
<polygon fill="black" stroke="black" points="553.008,-222.915 561.687,-216.838 551.113,-216.176 553.008,-222.915"/>
</g>
<!-- 19567 -->
<g id="node20" class="node"><title>19567</title>
<ellipse fill="none" stroke="black" cx="587" cy="-264" rx="27" ry="18"/>
<text text-anchor="middle" x="587" y="-259.8" font-family="Times,serif" font-size="14.00">o</text>
</g>
<!-- 12148&#45;&gt;19567 -->
<g id="edge19" class="edge"><title>12148&#45;&gt;19567</title>
<path fill="none" stroke="black" d="M518.025,-244.882C528.618,-247.861 540.791,-251.285 551.882,-254.404"/>
<polygon fill="black" stroke="black" points="551.113,-257.824 561.687,-257.162 553.008,-251.085 551.113,-257.824"/>
</g>
<!-- 371 -->
<g id="node21" class="node"><title>371</title>
<ellipse fill="none" stroke="red" cx="587" cy="-152" rx="27" ry="18"/>
<ellipse fill="none" stroke="red" cx="587" cy="-152" rx="31" ry="22"/>
<text text-anchor="middle" x="587" y="-147.8" font-family="Times,serif" font-size="14.00">s</text>
</g>
<!-- 12148&#45;&gt;371 -->
<g id="edge20" class="edge"><title>12148&#45;&gt;371</title>
<path fill="none" stroke="black" d="M509.427,-219.799C523.704,-207.158 543.282,-189.823 559.068,-175.846"/>
<polygon fill="black" stroke="black" points="561.763,-178.135 566.929,-168.885 557.122,-172.894 561.763,-178.135"/>
</g>
<!-- 21111 -->
<g id="node22" class="node"><title>21111</title>
<ellipse fill="none" stroke="black" cx="587" cy="-94" rx="27" ry="18"/>
<text text-anchor="middle" x="587" y="-89.8" font-family="Times,serif" font-size="14.00">w</text>
</g>
<!-- 12148&#45;&gt;21111 -->
<g id="edge21" class="edge"><title>12148&#45;&gt;21111</title>
<path fill="none" stroke="black" d="M499.383,-216.053C510.798,-191.806 531.595,-151.326 556,-121 557.653,-118.946 559.468,-116.913 561.362,-114.938"/>
<polygon fill="black" stroke="black" points="564.107,-117.154 568.88,-107.695 559.25,-112.112 564.107,-117.154"/>
</g>
<!-- 22113 -->
<g id="node23" class="node"><title>22113</title>
<ellipse fill="none" stroke="black" cx="681" cy="-531" rx="27" ry="18"/>
<text text-anchor="middle" x="681" y="-526.8" font-family="Times,serif" font-size="14.00">a</text>
</g>
<!-- 12911&#45;&gt;22113 -->
<g id="edge22" class="edge"><title>12911&#45;&gt;22113</title>
<path fill="none" stroke="black" d="M614.117,-531.716C623.343,-531.616 633.891,-531.501 643.802,-531.393"/>
<polygon fill="black" stroke="black" points="643.856,-534.893 653.817,-531.285 643.78,-527.894 643.856,-534.893"/>
</g>
<!-- 23155 -->
<g id="node24" class="node"><title>23155</title>
<ellipse fill="none" stroke="black" cx="771" cy="-638" rx="27" ry="18"/>
<text text-anchor="middle" x="771" y="-633.8" font-family="Times,serif" font-size="14.00">s</text>
</g>
<!-- 13925&#45;&gt;23155 -->
<g id="edge23" class="edge"><title>13925&#45;&gt;23155</title>
<path fill="none" stroke="black" d="M708.403,-636.6C716.393,-636.782 725.311,-636.984 733.824,-637.178"/>
<polygon fill="black" stroke="black" points="733.842,-640.679 743.919,-637.407 734.001,-633.681 733.842,-640.679"/>
</g>
<!-- 24164 -->
<g id="node25" class="node"><title>24164</title>
<ellipse fill="none" stroke="black" cx="771" cy="-477" rx="27" ry="18"/>
<text text-anchor="middle" x="771" y="-472.8" font-family="Times,serif" font-size="14.00">d</text>
</g>
<!-- 14953&#45;&gt;24164 -->
<g id="edge24" class="edge"><title>14953&#45;&gt;24164</title>
<path fill="none" stroke="black" d="M708.403,-475.6C716.393,-475.782 725.311,-475.984 733.824,-476.178"/>
<polygon fill="black" stroke="black" points="733.842,-479.679 743.919,-476.407 734.001,-472.681 733.842,-479.679"/>
</g>
<!-- 25202 -->
<g id="node26" class="node"><title>25202</title>
<ellipse fill="none" stroke="black" cx="865" cy="-318" rx="27" ry="18"/>
<text text-anchor="middle" x="865" y="-313.8" font-family="Times,serif" font-size="14.00">r</text>
</g>
<!-- 15457&#45;&gt;25202 -->
<g id="edge25" class="edge"><title>15457&#45;&gt;25202</title>
<path fill="none" stroke="black" d="M614.464,-318C664.025,-318 770.911,-318 827.359,-318"/>
<polygon fill="black" stroke="black" points="827.616,-321.5 837.616,-318 827.616,-314.5 827.616,-321.5"/>
</g>
<!-- 26227 -->
<g id="node27" class="node"><title>26227</title>
<ellipse fill="none" stroke="black" cx="681" cy="-380" rx="27" ry="18"/>
<text text-anchor="middle" x="681" y="-375.8" font-family="Times,serif" font-size="14.00">s</text>
</g>
<!-- 16485&#45;&gt;26227 -->
<g id="edge26" class="edge"><title>16485&#45;&gt;26227</title>
<path fill="none" stroke="black" d="M614.117,-375.703C623.343,-376.305 633.891,-376.993 643.802,-377.639"/>
<polygon fill="black" stroke="black" points="643.611,-381.134 653.817,-378.292 644.066,-374.149 643.611,-381.134"/>
</g>
<!-- 27491 -->
<g id="node28" class="node"><title>27491</title>
<ellipse fill="none" stroke="red" cx="865" cy="-22" rx="27" ry="18"/>
<ellipse fill="none" stroke="red" cx="865" cy="-22" rx="31" ry="22"/>
<text text-anchor="middle" x="865" y="-17.8" font-family="Times,serif" font-size="14.00">c</text>
</g>
<!-- 17513&#45;&gt;27491 -->
<g id="edge27" class="edge"><title>17513&#45;&gt;27491</title>
<path fill="none" stroke="black" d="M708.076,-23.7134C738.184,-23.3826 788.075,-22.8343 823.302,-22.4472"/>
<polygon fill="black" stroke="black" points="823.765,-25.9424 833.726,-22.3327 823.688,-18.9429 823.765,-25.9424"/>
</g>
<!-- 28265 -->
<g id="node29" class="node"><title>28265</title>
<ellipse fill="none" stroke="black" cx="681" cy="-160" rx="27" ry="18"/>
<text text-anchor="middle" x="681" y="-155.8" font-family="Times,serif" font-size="14.00">i</text>
</g>
<!-- 18540&#45;&gt;28265 -->
<g id="edge28" class="edge"><title>18540&#45;&gt;28265</title>
<path fill="none" stroke="black" d="M608.418,-198.903C620.805,-192.171 636.822,-183.467 650.562,-175.999"/>
<polygon fill="black" stroke="black" points="652.524,-178.916 659.639,-171.066 649.182,-172.766 652.524,-178.916"/>
</g>
<!-- 28777 -->
<g id="node30" class="node"><title>28777</title>
<ellipse fill="none" stroke="black" cx="771" cy="-206" rx="27" ry="18"/>
<text text-anchor="middle" x="771" y="-201.8" font-family="Times,serif" font-size="14.00">i</text>
</g>
<!-- 19567&#45;&gt;28777 -->
<g id="edge29" class="edge"><title>19567&#45;&gt;28777</title>
<path fill="none" stroke="black" d="M610.036,-254.163C622.739,-248.7 639.099,-242.016 654,-237 681.019,-227.904 712.275,-219.68 735.531,-213.991"/>
<polygon fill="black" stroke="black" points="736.389,-217.385 745.29,-211.638 734.748,-210.58 736.389,-217.385"/>
</g>
<!-- 30316 -->
<g id="node31" class="node"><title>30316</title>
<ellipse fill="none" stroke="black" cx="681" cy="-264" rx="27" ry="18"/>
<text text-anchor="middle" x="681" y="-259.8" font-family="Times,serif" font-size="14.00">l</text>
</g>
<!-- 19567&#45;&gt;30316 -->
<g id="edge30" class="edge"><title>19567&#45;&gt;30316</title>
<path fill="none" stroke="black" d="M614.117,-264C623.343,-264 633.891,-264 643.802,-264"/>
<polygon fill="black" stroke="black" points="643.817,-267.5 653.817,-264 643.817,-260.5 643.817,-267.5"/>
</g>
<!-- 31337 -->
<g id="node32" class="node"><title>31337</title>
<ellipse fill="none" stroke="black" cx="681" cy="-95" rx="27" ry="18"/>
<text text-anchor="middle" x="681" y="-90.8" font-family="Times,serif" font-size="14.00">i</text>
</g>
<!-- 21111&#45;&gt;31337 -->
<g id="edge31" class="edge"><title>21111&#45;&gt;31337</title>
<path fill="none" stroke="black" d="M614.117,-94.2839C623.343,-94.3842 633.891,-94.4988 643.802,-94.6065"/>
<polygon fill="black" stroke="black" points="643.78,-98.1064 653.817,-94.7154 643.856,-91.1068 643.78,-98.1064"/>
</g>
<!-- 10084 -->
<g id="node33" class="node"><title>10084</title>
<ellipse fill="none" stroke="red" cx="1159" cy="-534" rx="27" ry="18"/>
<ellipse fill="none" stroke="red" cx="1159" cy="-534" rx="31" ry="22"/>
<text text-anchor="middle" x="1159" y="-529.8" font-family="Times,serif" font-size="14.00">d</text>
</g>
<!-- 22113&#45;&gt;10084 -->
<g id="edge32" class="edge"><title>22113&#45;&gt;10084</title>
<path fill="none" stroke="black" d="M708.219,-530.297C743.585,-529.41 808.539,-528 864,-528 864,-528 864,-528 964,-528 1017.09,-528 1078.31,-530.273 1117.55,-532.021"/>
<polygon fill="black" stroke="black" points="1117.62,-535.527 1127.77,-532.486 1117.94,-528.534 1117.62,-535.527"/>
</g>
<!-- 32627 -->
<g id="node34" class="node"><title>32627</title>
<ellipse fill="none" stroke="red" cx="865" cy="-640" rx="27" ry="18"/>
<ellipse fill="none" stroke="red" cx="865" cy="-640" rx="31" ry="22"/>
<text text-anchor="middle" x="865" y="-635.8" font-family="Times,serif" font-size="14.00">s</text>
</g>
<!-- 23155&#45;&gt;32627 -->
<g id="edge33" class="edge"><title>23155&#45;&gt;32627</title>
<path fill="none" stroke="black" d="M798.117,-638.568C806.136,-638.742 815.152,-638.938 823.881,-639.128"/>
<polygon fill="black" stroke="black" points="823.846,-642.628 833.92,-639.346 823.998,-635.629 823.846,-642.628"/>
</g>
<!-- 10085 -->
<g id="node35" class="node"><title>10085</title>
<ellipse fill="none" stroke="red" cx="963" cy="-478" rx="27" ry="18"/>
<ellipse fill="none" stroke="red" cx="963" cy="-478" rx="31" ry="22"/>
<text text-anchor="middle" x="963" y="-473.8" font-family="Times,serif" font-size="14.00">e</text>
</g>
<!-- 24164&#45;&gt;10085 -->
<g id="edge34" class="edge"><title>24164&#45;&gt;10085</title>
<path fill="none" stroke="black" d="M798.02,-477.137C829.978,-477.305 884.53,-477.592 921.871,-477.789"/>
<polygon fill="black" stroke="black" points="921.895,-481.289 931.914,-477.842 921.932,-474.289 921.895,-481.289"/>
</g>
<!-- 32873 -->
<g id="node36" class="node"><title>32873</title>
<ellipse fill="none" stroke="black" cx="963" cy="-330" rx="27" ry="18"/>
<text text-anchor="middle" x="963" y="-325.8" font-family="Times,serif" font-size="14.00">i</text>
</g>
<!-- 25202&#45;&gt;32873 -->
<g id="edge35" class="edge"><title>25202&#45;&gt;32873</title>
<path fill="none" stroke="black" d="M891.726,-321.216C902.272,-322.534 914.661,-324.083 926.075,-325.509"/>
<polygon fill="black" stroke="black" points="925.846,-329.008 936.203,-326.775 926.714,-322.062 925.846,-329.008"/>
</g>
<!-- 889 -->
<g id="node37" class="node"><title>889</title>
<ellipse fill="none" stroke="red" cx="963" cy="-264" rx="27" ry="18"/>
<ellipse fill="none" stroke="red" cx="963" cy="-264" rx="31" ry="22"/>
<text text-anchor="middle" x="963" y="-259.8" font-family="Times,serif" font-size="14.00">y</text>
</g>
<!-- 25202&#45;&gt;889 -->
<g id="edge36" class="edge"><title>25202&#45;&gt;889</title>
<path fill="none" stroke="black" d="M886.359,-306.548C898.82,-299.539 915.052,-290.408 929.282,-282.404"/>
<polygon fill="black" stroke="black" points="931.285,-285.293 938.285,-277.34 927.853,-279.192 931.285,-285.293"/>
</g>
<!-- 34409 -->
<g id="node38" class="node"><title>34409</title>
<ellipse fill="none" stroke="black" cx="771" cy="-386" rx="27" ry="18"/>
<text text-anchor="middle" x="771" y="-381.8" font-family="Times,serif" font-size="14.00">i</text>
</g>
<!-- 26227&#45;&gt;34409 -->
<g id="edge37" class="edge"><title>26227&#45;&gt;34409</title>
<path fill="none" stroke="black" d="M707.927,-381.768C716.001,-382.318 725.057,-382.936 733.704,-383.525"/>
<polygon fill="black" stroke="black" points="733.739,-387.036 743.954,-384.224 734.216,-380.052 733.739,-387.036"/>
</g>
<!-- 35425 -->
<g id="node39" class="node"><title>35425</title>
<ellipse fill="none" stroke="black" cx="1159" cy="-68" rx="27" ry="18"/>
<text text-anchor="middle" x="1159" y="-63.8" font-family="Times,serif" font-size="14.00">a</text>
</g>
<!-- 27491&#45;&gt;35425 -->
<g id="edge38" class="edge"><title>27491&#45;&gt;35425</title>
<path fill="none" stroke="black" d="M896.074,-21.6471C939.82,-21.7783 1023.28,-24.468 1092,-41 1104.01,-43.8892 1116.68,-48.6276 1127.68,-53.3349"/>
<polygon fill="black" stroke="black" points="1126.29,-56.5485 1136.85,-57.4163 1129.14,-50.1531 1126.29,-56.5485"/>
</g>
<!-- 36459 -->
<g id="node40" class="node"><title>36459</title>
<ellipse fill="none" stroke="black" cx="771" cy="-150" rx="27" ry="18"/>
<text text-anchor="middle" x="771" y="-145.8" font-family="Times,serif" font-size="14.00">k</text>
</g>
<!-- 28265&#45;&gt;36459 -->
<g id="edge39" class="edge"><title>28265&#45;&gt;36459</title>
<path fill="none" stroke="black" d="M707.927,-157.054C716.162,-156.118 725.42,-155.066 734.223,-154.066"/>
<polygon fill="black" stroke="black" points="734.718,-157.532 744.258,-152.925 733.927,-150.577 734.718,-157.532"/>
</g>
<!-- 37732 -->
<g id="node41" class="node"><title>37732</title>
<ellipse fill="none" stroke="red" cx="1061" cy="-126" rx="27" ry="18"/>
<ellipse fill="none" stroke="red" cx="1061" cy="-126" rx="31" ry="22"/>
<text text-anchor="middle" x="1061" y="-121.8" font-family="Times,serif" font-size="14.00">d</text>
</g>
<!-- 28777&#45;&gt;37732 -->
<g id="edge40" class="edge"><title>28777&#45;&gt;37732</title>
<path fill="none" stroke="black" d="M796.555,-199.179C846.833,-185.213 961.814,-153.274 1021.88,-136.59"/>
<polygon fill="black" stroke="black" points="1023.03,-139.903 1031.73,-133.854 1021.15,-133.158 1023.03,-139.903"/>
</g>
<!-- 38511 -->
<g id="node42" class="node"><title>38511</title>
<ellipse fill="none" stroke="black" cx="771" cy="-264" rx="27" ry="18"/>
<text text-anchor="middle" x="771" y="-259.8" font-family="Times,serif" font-size="14.00">o</text>
</g>
<!-- 30316&#45;&gt;38511 -->
<g id="edge41" class="edge"><title>30316&#45;&gt;38511</title>
<path fill="none" stroke="black" d="M708.403,-264C716.393,-264 725.311,-264 733.824,-264"/>
<polygon fill="black" stroke="black" points="733.919,-267.5 743.919,-264 733.919,-260.5 733.919,-267.5"/>
</g>
<!-- 36452 -->
<g id="node43" class="node"><title>36452</title>
<ellipse fill="none" stroke="black" cx="771" cy="-95" rx="27" ry="18"/>
<text text-anchor="middle" x="771" y="-90.8" font-family="Times,serif" font-size="14.00">d</text>
</g>
<!-- 31337&#45;&gt;36452 -->
<g id="edge42" class="edge"><title>31337&#45;&gt;36452</title>
<path fill="none" stroke="black" d="M708.403,-95C716.393,-95 725.311,-95 733.824,-95"/>
<polygon fill="black" stroke="black" points="733.919,-98.5001 743.919,-95 733.919,-91.5001 733.919,-98.5001"/>
</g>
<!-- 10084&#45;&gt;883 -->
<g id="edge43" class="edge"><title>10084&#45;&gt;883</title>
<path fill="none" stroke="black" d="M1176.53,-515.44C1181.1,-509.977 1185.92,-503.884 1190,-498 1209.46,-469.923 1228.39,-435.713 1240.96,-411.745"/>
<polygon fill="black" stroke="black" points="1244.11,-413.269 1245.61,-402.78 1237.89,-410.045 1244.11,-413.269"/>
</g>
<!-- 39525 -->
<g id="node44" class="node"><title>39525</title>
<ellipse fill="none" stroke="black" cx="963" cy="-624" rx="27" ry="18"/>
<text text-anchor="middle" x="963" y="-619.8" font-family="Times,serif" font-size="14.00">e</text>
</g>
<!-- 32627&#45;&gt;39525 -->
<g id="edge44" class="edge"><title>32627&#45;&gt;39525</title>
<path fill="none" stroke="black" d="M895.325,-635.113C905.25,-633.458 916.437,-631.594 926.773,-629.871"/>
<polygon fill="black" stroke="black" points="927.457,-633.305 936.746,-628.209 926.306,-626.401 927.457,-633.305"/>
</g>
<!-- 10085&#45;&gt;883 -->
<g id="edge45" class="edge"><title>10085&#45;&gt;883</title>
<path fill="none" stroke="black" d="M992.944,-484.279C1031.46,-491.43 1101.29,-500.172 1158,-484"/>
</g>
<!-- 353 -->
<g id="node45" class="node"><title>353</title>
<ellipse fill="none" stroke="red" cx="1061" cy="-280" rx="27" ry="18"/>
<ellipse fill="none" stroke="red" cx="1061" cy="-280" rx="31" ry="22"/>
<text text-anchor="middle" x="1061" y="-275.8" font-family="Times,serif" font-size="14.00">a</text>
</g>
<!-- 32873&#45;&gt;353 -->
<g id="edge46" class="edge"><title>32873&#45;&gt;353</title>
<path fill="none" stroke="black" d="M984.831,-319.151C996.928,-312.85 1012.46,-304.761 1026.26,-297.573"/>
<polygon fill="black" stroke="black" points="1028.22,-300.497 1035.47,-292.774 1024.99,-294.289 1028.22,-300.497"/>
</g>
<!-- 39013 -->
<g id="node46" class="node"><title>39013</title>
<ellipse fill="none" stroke="black" cx="1159" cy="-324" rx="27" ry="18"/>
<text text-anchor="middle" x="1159" y="-319.8" font-family="Times,serif" font-size="14.00">e</text>
</g>
<!-- 32873&#45;&gt;39013 -->
<g id="edge47" class="edge"><title>32873&#45;&gt;39013</title>
<path fill="none" stroke="black" d="M990.164,-329.191C1024.1,-328.141 1083.48,-326.305 1121.75,-325.121"/>
<polygon fill="black" stroke="black" points="1122.05,-328.613 1131.94,-324.806 1121.84,-321.617 1122.05,-328.613"/>
</g>
<!-- 40565 -->
<g id="node47" class="node"><title>40565</title>
<ellipse fill="none" stroke="black" cx="1061" cy="-376" rx="27" ry="18"/>
<text text-anchor="middle" x="1061" y="-371.8" font-family="Times,serif" font-size="14.00">u</text>
</g>
<!-- 32873&#45;&gt;40565 -->
<g id="edge48" class="edge"><title>32873&#45;&gt;40565</title>
<path fill="none" stroke="black" d="M985.306,-340.209C998.265,-346.419 1015.03,-354.453 1029.39,-361.335"/>
<polygon fill="black" stroke="black" points="1027.89,-364.496 1038.42,-365.661 1030.92,-358.183 1027.89,-364.496"/>
</g>
<!-- 41581 -->
<g id="node48" class="node"><title>41581</title>
<ellipse fill="none" stroke="black" cx="865" cy="-387" rx="27" ry="18"/>
<text text-anchor="middle" x="865" y="-382.8" font-family="Times,serif" font-size="14.00">m</text>
</g>
<!-- 34409&#45;&gt;41581 -->
<g id="edge49" class="edge"><title>34409&#45;&gt;41581</title>
<path fill="none" stroke="black" d="M798.117,-386.284C807.343,-386.384 817.891,-386.499 827.802,-386.607"/>
<polygon fill="black" stroke="black" points="827.78,-390.106 837.817,-386.715 827.856,-383.107 827.78,-390.106"/>
</g>
<!-- 876 -->
<g id="node49" class="node"><title>876</title>
<ellipse fill="none" stroke="red" cx="1257" cy="-95" rx="27" ry="18"/>
<ellipse fill="none" stroke="red" cx="1257" cy="-95" rx="31" ry="22"/>
<text text-anchor="middle" x="1257" y="-90.8" font-family="Times,serif" font-size="14.00">l</text>
</g>
<!-- 35425&#45;&gt;876 -->
<g id="edge50" class="edge"><title>35425&#45;&gt;876</title>
<path fill="none" stroke="black" d="M1184.22,-74.8132C1194.54,-77.7131 1206.8,-81.1637 1218.26,-84.3844"/>
<polygon fill="black" stroke="black" points="1217.47,-87.7978 1228.04,-87.1361 1219.36,-81.0593 1217.47,-87.7978"/>
</g>
<!-- 869 -->
<g id="node50" class="node"><title>869</title>
<ellipse fill="none" stroke="red" cx="865" cy="-97" rx="27" ry="18"/>
<ellipse fill="none" stroke="red" cx="865" cy="-97" rx="31" ry="22"/>
<text text-anchor="middle" x="865" y="-92.8" font-family="Times,serif" font-size="14.00">e</text>
</g>
<!-- 36459&#45;&gt;869 -->
<g id="edge51" class="edge"><title>36459&#45;&gt;869</title>
<path fill="none" stroke="black" d="M791.963,-138.5C803.556,-131.821 818.44,-123.247 831.665,-115.628"/>
<polygon fill="black" stroke="black" points="833.578,-118.565 840.496,-110.54 830.084,-112.499 833.578,-118.565"/>
</g>
<!-- 37732&#45;&gt;883 -->
<g id="edge53" class="edge"><title>37732&#45;&gt;883</title>
<path fill="none" stroke="black" d="M1086.34,-138.869C1114.67,-154.942 1161.24,-184.893 1190,-222 1220.27,-261.067 1238.89,-315.984 1248.33,-350.256"/>
<polygon fill="black" stroke="black" points="1245.02,-351.422 1250.97,-360.188 1251.79,-349.625 1245.02,-351.422"/>
</g>
<!-- 34913 -->
<g id="node51" class="node"><title>34913</title>
<ellipse fill="none" stroke="black" cx="1159" cy="-124" rx="27" ry="18"/>
<text text-anchor="middle" x="1159" y="-119.8" font-family="Times,serif" font-size="14.00">a</text>
</g>
<!-- 37732&#45;&gt;34913 -->
<g id="edge52" class="edge"><title>37732&#45;&gt;34913</title>
<path fill="none" stroke="black" d="M1092.11,-125.373C1101.48,-125.177 1111.91,-124.96 1121.66,-124.757"/>
<polygon fill="black" stroke="black" points="1121.96,-128.252 1131.88,-124.544 1121.81,-121.253 1121.96,-128.252"/>
</g>
<!-- 42599 -->
<g id="node52" class="node"><title>42599</title>
<ellipse fill="none" stroke="black" cx="865" cy="-264" rx="27" ry="18"/>
<text text-anchor="middle" x="865" y="-259.8" font-family="Times,serif" font-size="14.00">g</text>
</g>
<!-- 38511&#45;&gt;42599 -->
<g id="edge54" class="edge"><title>38511&#45;&gt;42599</title>
<path fill="none" stroke="black" d="M798.117,-264C807.343,-264 817.891,-264 827.802,-264"/>
<polygon fill="black" stroke="black" points="827.817,-267.5 837.817,-264 827.817,-260.5 827.817,-267.5"/>
</g>
<!-- 36452&#45;&gt;869 -->
<g id="edge55" class="edge"><title>36452&#45;&gt;869</title>
<path fill="none" stroke="black" d="M798.117,-95.5678C806.136,-95.7421 815.152,-95.9381 823.881,-96.1279"/>
<polygon fill="black" stroke="black" points="823.846,-99.6278 833.92,-96.3461 823.998,-92.6295 823.846,-99.6278"/>
</g>
<!-- 39525&#45;&gt;883 -->
<g id="edge56" class="edge"><title>39525&#45;&gt;883</title>
<path fill="none" stroke="black" d="M990.17,-622.381C1009.52,-621.576 1036.49,-621.278 1060,-624"/>
</g>
<!-- 39013&#45;&gt;883 -->
<g id="edge57" class="edge"><title>39013&#45;&gt;883</title>
<path fill="none" stroke="black" d="M1179.89,-336.018C1192.63,-343.711 1209.44,-353.868 1224.02,-362.678"/>
<polygon fill="black" stroke="black" points="1222.38,-365.78 1232.75,-367.955 1226,-359.788 1222.38,-365.78"/>
</g>
<!-- 10093 -->
<g id="node53" class="node"><title>10093</title>
<ellipse fill="none" stroke="red" cx="1159" cy="-382" rx="27" ry="18"/>
<ellipse fill="none" stroke="red" cx="1159" cy="-382" rx="31" ry="22"/>
<text text-anchor="middle" x="1159" y="-377.8" font-family="Times,serif" font-size="14.00">m</text>
</g>
<!-- 40565&#45;&gt;10093 -->
<g id="edge58" class="edge"><title>40565&#45;&gt;10093</title>
<path fill="none" stroke="black" d="M1087.98,-377.624C1097.13,-378.196 1107.64,-378.853 1117.69,-379.481"/>
<polygon fill="black" stroke="black" points="1117.72,-382.989 1127.92,-380.12 1118.16,-376.003 1117.72,-382.989"/>
</g>
<!-- 43617 -->
<g id="node54" class="node"><title>43617</title>
<ellipse fill="none" stroke="black" cx="963" cy="-399" rx="27" ry="18"/>
<text text-anchor="middle" x="963" y="-394.8" font-family="Times,serif" font-size="14.00">a</text>
</g>
<!-- 41581&#45;&gt;43617 -->
<g id="edge59" class="edge"><title>41581&#45;&gt;43617</title>
<path fill="none" stroke="black" d="M891.726,-390.216C902.272,-391.534 914.661,-393.083 926.075,-394.509"/>
<polygon fill="black" stroke="black" points="925.846,-398.008 936.203,-395.775 926.714,-391.062 925.846,-398.008"/>
</g>
<!-- 34913&#45;&gt;876 -->
<g id="edge60" class="edge"><title>34913&#45;&gt;876</title>
<path fill="none" stroke="black" d="M1184.22,-116.682C1194.54,-113.567 1206.8,-109.861 1218.26,-106.402"/>
<polygon fill="black" stroke="black" points="1219.48,-109.689 1228.04,-103.446 1217.45,-102.988 1219.48,-109.689"/>
</g>
<!-- 42599&#45;&gt;889 -->
<g id="edge62" class="edge"><title>42599&#45;&gt;889</title>
<path fill="none" stroke="black" d="M892.232,-264C901.297,-264 911.676,-264 921.608,-264"/>
<polygon fill="black" stroke="black" points="921.724,-267.5 931.724,-264 921.724,-260.5 921.724,-267.5"/>
</g>
<!-- 44137 -->
<g id="node55" class="node"><title>44137</title>
<ellipse fill="none" stroke="black" cx="963" cy="-204" rx="27" ry="18"/>
<text text-anchor="middle" x="963" y="-199.8" font-family="Times,serif" font-size="14.00">i</text>
</g>
<!-- 42599&#45;&gt;44137 -->
<g id="edge61" class="edge"><title>42599&#45;&gt;44137</title>
<path fill="none" stroke="black" d="M885.427,-251.858C899.35,-243.156 918.316,-231.303 933.889,-221.57"/>
<polygon fill="black" stroke="black" points="935.977,-224.392 942.602,-216.124 932.267,-218.456 935.977,-224.392"/>
</g>
<!-- 10093&#45;&gt;883 -->
<g id="edge63" class="edge"><title>10093&#45;&gt;883</title>
<path fill="none" stroke="black" d="M1190.11,-382C1198.24,-382 1207.17,-382 1215.76,-382"/>
<polygon fill="black" stroke="black" points="1216,-385.5 1226,-382 1216,-378.5 1216,-385.5"/>
</g>
<!-- 10092 -->
<g id="node56" class="node"><title>10092</title>
<ellipse fill="none" stroke="red" cx="1061" cy="-434" rx="27" ry="18"/>
<ellipse fill="none" stroke="red" cx="1061" cy="-434" rx="31" ry="22"/>
<text text-anchor="middle" x="1061" y="-429.8" font-family="Times,serif" font-size="14.00">l</text>
</g>
<!-- 43617&#45;&gt;10092 -->
<g id="edge64" class="edge"><title>43617&#45;&gt;10092</title>
<path fill="none" stroke="black" d="M987.239,-407.473C998.098,-411.432 1011.28,-416.239 1023.43,-420.669"/>
<polygon fill="black" stroke="black" points="1022.3,-423.98 1032.89,-424.117 1024.69,-417.403 1022.3,-423.98"/>
</g>
<!-- 44137&#45;&gt;39013 -->
<g id="edge66" class="edge"><title>44137&#45;&gt;39013</title>
<path fill="none" stroke="black" d="M989.305,-208.886C1016.45,-215.001 1059.98,-227.392 1092,-249 1102.83,-256.31 1123.78,-281.004 1139.18,-300.081"/>
<polygon fill="black" stroke="black" points="1136.63,-302.486 1145.61,-308.107 1142.09,-298.112 1136.63,-302.486"/>
</g>
<!-- 45155 -->
<g id="node57" class="node"><title>45155</title>
<ellipse fill="none" stroke="black" cx="1061" cy="-68" rx="27" ry="18"/>
<text text-anchor="middle" x="1061" y="-63.8" font-family="Times,serif" font-size="14.00">c</text>
</g>
<!-- 44137&#45;&gt;45155 -->
<g id="edge65" class="edge"><title>44137&#45;&gt;45155</title>
<path fill="none" stroke="black" d="M972.424,-186.743C983.79,-164.355 1005.46,-124.658 1030,-95 1031.68,-92.9687 1033.52,-90.9513 1035.42,-88.9875"/>
<polygon fill="black" stroke="black" points="1038.16,-91.2086 1042.96,-81.7638 1033.32,-86.1534 1038.16,-91.2086"/>
</g>
<!-- 46707 -->
<g id="node58" class="node"><title>46707</title>
<ellipse fill="none" stroke="black" cx="1061" cy="-184" rx="27" ry="18"/>
<text text-anchor="middle" x="1061" y="-179.8" font-family="Times,serif" font-size="14.00">s</text>
</g>
<!-- 44137&#45;&gt;46707 -->
<g id="edge67" class="edge"><title>44137&#45;&gt;46707</title>
<path fill="none" stroke="black" d="M988.972,-198.797C999.886,-196.524 1012.88,-193.816 1024.75,-191.343"/>
<polygon fill="black" stroke="black" points="1025.74,-194.712 1034.82,-189.246 1024.32,-187.859 1025.74,-194.712"/>
</g>
<!-- 10092&#45;&gt;883 -->
<g id="edge68" class="edge"><title>10092&#45;&gt;883</title>
<path fill="none" stroke="black" d="M1079.14,-452.328C1097.68,-469.833 1128.54,-492.4 1158,-484"/>
<path fill="none" stroke="black" d="M1160,-484C1196.61,-473.56 1224.34,-437.747 1240.37,-411.496"/>
<polygon fill="black" stroke="black" points="1243.5,-413.064 1245.54,-402.667 1237.46,-409.525 1243.5,-413.064"/>
</g>
<!-- 45155&#45;&gt;35425 -->
<g id="edge69" class="edge"><title>45155&#45;&gt;35425</title>
<path fill="none" stroke="black" d="M1088.23,-68C1098.5,-68 1110.45,-68 1121.53,-68"/>
<polygon fill="black" stroke="black" points="1121.8,-71.5001 1131.8,-68 1121.8,-64.5001 1121.8,-71.5001"/>
</g>
<!-- 10100 -->
<g id="node59" class="node"><title>10100</title>
<ellipse fill="none" stroke="red" cx="1159" cy="-253" rx="27" ry="18"/>
<ellipse fill="none" stroke="red" cx="1159" cy="-253" rx="31" ry="22"/>
<text text-anchor="middle" x="1159" y="-248.8" font-family="Times,serif" font-size="14.00">t</text>
</g>
<!-- 46707&#45;&gt;10100 -->
<g id="edge71" class="edge"><title>46707&#45;&gt;10100</title>
<path fill="none" stroke="black" d="M1080.06,-196.978C1093.62,-206.728 1112.5,-220.296 1128.28,-231.637"/>
<polygon fill="black" stroke="black" points="1126.51,-234.676 1136.67,-237.671 1130.59,-228.992 1126.51,-234.676"/>
</g>
<!-- 10100&#45;&gt;883 -->
<g id="edge73" class="edge"><title>10100&#45;&gt;883</title>
<path fill="none" stroke="black" d="M1174.37,-272.313C1190.56,-294.067 1217.01,-329.603 1235.39,-354.309"/>
<polygon fill="black" stroke="black" points="1232.75,-356.623 1241.53,-362.555 1238.37,-352.443 1232.75,-356.623"/>
</g>
</g>
</svg>
